<?xml version="1.0" encoding="UTF-8"?><svg xmlns="http://www.w3.org/2000/svg" viewBox="0 0 4032 1224"><defs><style>.cls-1{fill:#46ac9e;}.cls-2{fill:#4fc1b1;}.cls-3{fill:#262626;stroke:#262626;}</style></defs><g id="ICON_copy"><path class="cls-2" d="M529.21,934.53c-2.3,.68-4.63,1.27-6.89,2.06-22.03,7.71-44.66,12.87-67.76,15.98-8.62,1.16-17.33,1.76-26,2.57-15.64,1.45-31.33,1.06-46.96,.5-12.71-.46-25.41-2.11-38.03-3.85-23.36-3.21-46.08-9.17-68.29-17.03-19.45-6.89-38.24-15.26-56.37-25.13-22.16-12.07-42.75-26.43-62.2-42.46-13.58-11.19-26.08-23.57-37.92-36.52-17.08-18.69-32.07-39.06-44.92-60.9-15.7-26.67-28.37-54.7-37.2-84.43-4.33-14.56-8.01-29.26-10.5-44.23-1.78-10.7-3.05-21.5-4.21-32.29-1.59-14.84-1.85-29.75-1.41-44.65,.27-9.07,1.36-18.12,1.98-27.18,.87-12.5,3.06-24.81,5.44-37.09,5.11-26.42,13.55-51.8,24.03-76.53,.43-1.02,1.06-1.95,1.87-3.43,1.43,1.02,2.74,1.69,3.72,2.69,4.78,4.87,9.39,9.9,14.19,14.73,18.45,18.55,36.99,37,55.41,55.57,18.95,19.11,37.81,38.31,56.72,57.46,18.9,19.16,37.81,38.31,56.72,57.46,21.04,21.31,42.11,42.59,63.13,63.92,9.4,9.54,18.74,19.14,28.07,28.73,14.79,15.21,32.92,23.77,53.82,26.08,16.35,1.8,32.25-.55,47.31-7.64,9.6-4.52,18.12-10.43,25.57-18,14.54-14.77,29.26-29.36,43.86-44.07,4.36-4.39,8.52-8.98,12.88-13.37,21.47-21.59,43.01-43.11,64.45-64.72,17.26-17.4,34.43-34.9,51.62-52.37,2.83-2.88,5.53-5.89,8.31-8.82,.61-.64,1.24-1.28,1.97-1.77,1.54-1.04,2.67-.7,3.11,1.14,.38,1.57,.45,3.25,.43,4.88-.18,14.14-.58,28.28-.59,42.43-.07,95.67-.06,191.33-.08,287,0,2.27-.07,4.54-.1,6.81-32.21-.01-64.42-.01-96.63-.07-2.77,0-5.53-.41-8.3-.53-2.65-.12-5.3-.22-7.95-.12-2.31,.09-2.79,.69-3.01,3.01-.06,.63-.04,1.26-.04,1.89,0,22.49-.02,44.97,.03,67.46,0,1.61,.48,3.21,.73,4.82Z"/><path class="cls-2" d="M69.33,387.59c1.17-2.51,1.8-4.26,2.75-5.82,11.15-18.39,23.38-36,37.37-52.39,8.62-10.1,17.46-19.98,27.12-29.07,13.81-13,28.36-25.1,43.85-36.08,19.13-13.56,39.4-25.12,60.58-35.12,15.8-7.47,32.19-13.38,48.86-18.53,17.05-5.26,34.39-9.35,52.06-11.8,10.74-1.49,21.56-2.41,32.36-3.51,15-1.53,30.04-.63,45.07-.62,6.54,0,13.11,.73,19.61,1.62,13,1.77,26.05,3.41,38.92,5.94,26,5.11,51.07,13.33,75.32,24.02,28.69,12.65,55.48,28.51,80.29,47.69,16.13,12.46,31.22,26.09,45.08,41.01,14.28,15.38,27.44,31.71,39,49.26,4.38,6.64,8.42,13.51,12.58,20.29,.45,.73,.7,1.57,1.18,2.66-.99,.32-1.76,.71-2.55,.79-1.25,.13-2.52,.06-3.79,.06-36.39,0-72.78,0-109.17,0-1.64,0-3.29,0-4.92,.12-2.6,.19-4.75,1.18-6.68,3.1-13.43,13.36-27.06,26.53-40.43,39.95-17.92,17.99-35.67,36.15-53.5,54.22-19.07,19.34-38.17,38.65-57.23,58-13.92,14.13-27.81,28.28-41.68,42.45-4.59,4.69-9.06,9.51-13.66,14.19-2.93,2.98-3.93,3.04-6.88,.07-9.43-9.51-18.74-19.13-28.14-28.66-9.05-9.17-18.19-18.27-27.24-27.44-17.48-17.71-34.91-35.47-52.41-53.17-25.49-25.79-51.04-51.52-76.52-77.31-7.01-7.1-13.96-14.26-20.77-21.55-2.34-2.5-5-3.73-8.29-3.88-1.64-.07-3.28-.1-4.92-.1-32.35,0-64.7,0-97.04-.02-1.72,0-3.44-.2-6.16-.38Z"/><path class="cls-2" d="M644.55,860.19c.42,3.49,.85,6.99,1.27,10.48,2.88,24.06,5.67,48.13,8.67,72.17,2,16.03,4.29,32.03,6.44,48.04,.77,5.76,1.51,11.51,2.24,17.28,.09,.74,.3,1.66-.03,2.22-.35,.59-1.31,1.25-1.92,1.17-.94-.12-1.83-.79-2.7-1.29-22.72-13.2-45.41-26.43-68.14-39.61-18.46-10.71-36.97-21.35-55.42-32.09-1.83-1.06-3.4-2.56-5.09-3.85,1.27-.57,2.51-1.2,3.81-1.69,18.74-6.97,36.87-15.2,54.31-25.04,18.98-10.71,36.92-22.88,53.86-36.56,1.7-1.38,2.67-2.94,2.62-5.16-.04-2.02,.05-4.04,.08-6.06Z"/><path class="cls-1" d="M644.55,860.19c-.03,2.02-.12,4.04-.08,6.06,.04,2.22-.92,3.78-2.62,5.16-16.94,13.69-34.89,25.85-53.86,36.56-17.43,9.84-35.57,18.07-54.31,25.04-1.3,.48-2.54,1.12-3.81,1.69-.23-.05-.45-.11-.67-.18-.25-1.61-.73-3.21-.73-4.82-.05-22.48-.03-44.97-.03-67.46,0-.63-.02-1.27,.04-1.89,.22-2.32,.71-2.92,3.01-3.01,2.64-.1,5.3,0,7.95,.12,2.77,.12,5.53,.52,8.3,.53,32.21,.05,64.42,.05,96.63,.07,.06,.71,.12,1.42,.18,2.12Z"/><path class="cls-2" d="M755.93,438.11c14.63,37.46,22.97,76.01,24.88,115.8,2.59,54.07-4.63,106.72-24.66,157.27-.42-.07-.57-.06-.66-.12-.09-.06-.19-.2-.2-.31-.07-.88-.17-1.75-.17-2.63,.02-89.67,.06-179.34,.11-269.01,0-.19,.25-.37,.71-1Z"/></g><g id="COPY"><g><path class="cls-3" d="M1022.1,869.56c-119.85,0-223.1-45.17-223.1-253.52s97.72-253.52,223.1-253.52c117.08,0,223.1,44.25,223.1,253.52s-106.02,253.52-223.1,253.52Zm0-386.28c-34.11,0-47.94,15.67-47.94,132.75,0,108.78,18.44,131.83,47.94,131.83s47.94-18.44,47.94-131.83-11.98-132.75-47.94-132.75Z"/><path class="cls-3" d="M1540.21,860.34v-318.98c0-24.89-5.53-29.5-23.97-29.5-19.36,0-49.78,12.91-49.78,12.91v335.57h-175.16V371.73h140.13l32.27,35.95s53.47-45.17,129.99-45.17c82.97,0,121.69,45.17,121.69,136.44v361.39h-175.16Z"/><path class="cls-3" d="M1935.7,674.12c0,52.55,25.81,62.69,69.14,62.69,52.55,0,142.9-19.36,142.9-19.36v127.22s-70.07,24.89-142.9,24.89c-109.71,0-243.38-17.52-243.38-251.68,0-206.51,105.1-255.37,215.73-255.37s195.44,58.08,195.44,253.52v58.08h-236.93Zm41.49-207.43c-44.25,0-39.64,54.39-41.49,112.47h73.75c0-57.16,2.77-112.47-32.27-112.47Z"/><path class="cls-3" d="M2347.79,869.56c-72.83,0-140.13-23.05-140.13-23.05v-126.3s82.97,21.2,109.71,21.2,47.02-3.69,47.02-27.66c0-21.2-17.52-28.58-41.49-39.64l-22.13-10.14c-41.49-19.36-100.49-52.55-100.49-141.97,0-130.91,102.33-159.49,188.07-159.49,78.36,0,129.07,23.05,129.07,23.05v122.61s-61.77-19.36-109.71-19.36c-21.2,0-36.88,5.53-36.88,23.97,0,22.13,20.28,29.5,43.33,39.64l18.44,8.3c43.33,19.36,103.25,50.7,103.25,142.9,0,147.5-109.71,165.94-188.07,165.94Z"/><path class="cls-3" d="M2752.49,869.56c-49.78,0-142.9-5.53-142.9-141.05v-245.23h-64.53v-111.55h64.53l22.13-110.63,153.04-36.88v147.5h92.19l-23.05,111.55h-69.14v213.88c0,33.19,10.14,39.64,29.5,39.64,12.91,0,62.69-7.38,62.69-7.38v124.46s-70.99,15.67-124.46,15.67Z"/><path class="cls-3" d="M3142.44,860.34l-27.66-34.11s-28.58,43.33-92.19,43.33c-50.7,0-136.44-12.91-136.44-157.65,0-156.72,125.38-169.63,192.68-169.63h33.19v-19.36c0-22.13-9.22-30.42-41.49-30.42-48.86,0-133.68,23.97-133.68,23.97v-125.38s82.97-28.58,179.77-28.58,170.55,28.58,170.55,149.35v348.48h-144.74Zm-30.42-235.09l-14.75,.92c-33.19,1.84-42.41,17.52-42.41,75.6,0,43.33,10.14,59.92,34.11,59.92,11.06,0,23.05-5.53,23.05-5.53v-130.91Z"/><path class="cls-3" d="M3582.19,300.75c-23.97,0-32.27,17.52-32.27,39.64v31.34h92.19l-23.05,111.55h-69.14v377.06h-175.16V483.28h-64.53v-111.55h64.53v-41.49c0-135.52,100.49-152.11,169.63-152.11s129.99,18.44,129.99,18.44v115.24s-56.24-11.06-92.19-11.06Z"/><path class="cls-3" d="M3892.87,300.75c-23.97,0-32.27,17.52-32.27,39.64v31.34h92.19l-23.05,111.55h-69.14v377.06h-175.16V483.28h-64.53v-111.55h64.53v-41.49c0-135.52,100.49-152.11,169.63-152.11s129.99,18.44,129.99,18.44v115.24s-56.24-11.06-92.19-11.06Z"/></g></g></svg>